<?xml version="1.0" encoding="UTF-8" standalone="no"?>
<svg
   xmlns:dc="http://purl.org/dc/elements/1.1/"
   xmlns:cc="http://creativecommons.org/ns#"
   xmlns:rdf="http://www.w3.org/1999/02/22-rdf-syntax-ns#"
   xmlns:svg="http://www.w3.org/2000/svg"
   xmlns="http://www.w3.org/2000/svg"
   xmlns:sodipodi="http://sodipodi.sourceforge.net/DTD/sodipodi-0.dtd"
   xmlns:inkscape="http://www.inkscape.org/namespaces/inkscape"
   width="34.056824mm"
   height="5.7148833mm"
   viewBox="0 0 34.056824 5.7148833"
   version="1.1"
   id="svg7112"
   inkscape:version="1.0.1 (3bc2e813f5, 2020-09-07)"
   sodipodi:docname="divider.svg">
  <defs
     id="defs7106">
    <clipPath
       clipPathUnits="userSpaceOnUse"
       id="clipPath355778">
      <path
         d="M 0,792 H 875 V 0 H 0 Z"
         id="path355776"
         inkscape:connector-curvature="0" />
    </clipPath>
    <clipPath
       clipPathUnits="userSpaceOnUse"
       id="clipPath355786">
      <path
         d="m 134.948,684.644 h 88.093 V 640.03 h -88.093 z"
         id="path355784"
         inkscape:connector-curvature="0" />
    </clipPath>
    <linearGradient
       x1="0"
       y1="0"
       x2="1"
       y2="0"
       gradientUnits="userSpaceOnUse"
       gradientTransform="matrix(0.1595001,44.303711,44.303711,-0.1595001,178.9248,640.18848)"
       spreadMethod="pad"
       id="linearGradient355798">
      <stop
         style="stop-opacity:1;stop-color:#eaf4e3"
         offset="0"
         id="stop355792" />
      <stop
         style="stop-opacity:1;stop-color:#4ebc8c"
         offset="0.549454"
         id="stop355794" />
      <stop
         style="stop-opacity:1;stop-color:#3a60ac"
         offset="1"
         id="stop355796" />
    </linearGradient>
  </defs>
  <sodipodi:namedview
     id="base"
     pagecolor="#ffffff"
     bordercolor="#666666"
     borderopacity="1.0"
     inkscape:pageopacity="0.0"
     inkscape:pageshadow="2"
     inkscape:zoom="2.8"
     inkscape:cx="146.4816"
     inkscape:cy="117.5776"
     inkscape:document-units="mm"
     inkscape:current-layer="layer1"
     inkscape:document-rotation="0"
     showgrid="false"
     inkscape:window-width="1267"
     inkscape:window-height="1198"
     inkscape:window-x="270"
     inkscape:window-y="201"
     inkscape:window-maximized="0"
     fit-margin-top="0"
     fit-margin-left="0"
     fit-margin-right="0"
     fit-margin-bottom="0" />
  <metadata
     id="metadata7109">
    <rdf:RDF>
      <cc:Work
         rdf:about="">
        <dc:format>image/svg+xml</dc:format>
        <dc:type
           rdf:resource="http://purl.org/dc/dcmitype/StillImage" />
        <dc:title></dc:title>
      </cc:Work>
    </rdf:RDF>
  </metadata>
  <g
     inkscape:label="Layer 1"
     inkscape:groupmode="layer"
     id="layer1"
     transform="translate(-26.060876,-33.428274)">
    <g
       id="g355772"
       transform="matrix(0.34659152,-0.09611834,-0.0869992,-0.31370897,38.495679,261.36464)">
      <g
         id="g355774"
         clip-path="url(#clipPath355778)">
        <g
           id="g355780">
          <g
             id="g355782" />
          <g
             id="g355812">
            <g
               clip-path="url(#clipPath355786)"
               id="g355810">
              <g
                 id="g355808">
                <g
                   id="g355806">
                  <g
                     id="g355804">
                    <g
                       id="g355802">
                      <path
                         d="m 201.46,651.932 c -0.351,0.167 -0.56,0.228 -0.763,0.289 0.429,-0.288 0.486,-0.204 0.763,-0.289 m -2.098,0.813 c -0.599,0.224 -0.171,-0.034 -0.3,-0.047 0.451,-0.004 0.744,-0.328 0.3,0.047 m -11.343,4.242 c 0.365,-0.086 0.731,-0.168 1.096,-0.258 l -0.152,0.062 c -0.281,0.025 -0.655,0.154 -0.944,0.196 m -17.519,3.485 c 0.859,-0.109 1.72,-0.216 2.582,-0.311 l -0.161,0.041 c -0.808,0.08 -1.613,0.173 -2.421,0.27 m -13.829,3.357 c 0.346,-0.102 0.69,-0.203 1.037,-0.302 l -0.382,0.158 z m 0.48,-0.542 c 0.416,-0.098 0.833,-0.196 1.249,-0.288 -0.476,0.223 -0.752,0.23 -1.432,0.453 z m 3.41,-0.366 c -0.001,0.006 -0.001,0.01 -0.001,0.016 -0.004,-0.005 -0.004,-0.011 0.001,-0.016 m 0.028,-0.083 c -0.717,0.165 -1.435,0.338 -2.15,0.52 0.428,-0.14 0.855,-0.274 1.285,-0.41 -0.577,0.095 -1.933,0.524 -2.121,0.461 1.889,-0.426 4.861,-1.285 6.549,-1.475 -0.77,0.199 -1.74,0.386 -2.647,0.626 -0.355,0.126 -0.892,0.294 -0.944,0.361 -0.001,-0.023 -0.011,-0.047 0.028,-0.083 m 28.085,-5.781 c 0.048,-0.009 0.097,-0.015 0.157,-0.028 -0.048,0.012 -0.089,0.023 -0.144,0.034 -0.016,0 -0.008,-0.005 -0.013,-0.006 m 0.404,-0.188 c -0.203,0.086 -0.448,0.169 -0.404,0.188 -0.245,0.035 -0.299,0.029 0.404,-0.188 m -40.965,9.845 c 0.475,-0.171 0.949,-0.337 1.428,-0.499 -0.539,0.303 -0.861,0.352 -1.628,0.699 z m 3.648,-0.722 c 0.035,-0.014 0.066,-0.027 0.092,-0.039 -0.176,0.067 -0.353,0.132 -0.527,0.197 0.141,-0.05 0.285,-0.102 0.435,-0.158 m 8.959,-2.538 c 0.791,-0.176 1.865,-0.423 1.984,-0.511 -0.195,0.035 -0.265,0.038 -0.298,0.031 -2.492,0.536 -5.203,1.294 -7.64,2.037 0.22,-0.083 0.155,-0.088 0.234,-0.143 -0.745,0.234 -1.506,0.49 -2.27,0.764 2.73,-0.785 5.072,-1.525 7.99,-2.178 m 3.184,-0.666 -0.131,-0.085 c -0.351,0.064 -0.707,0.133 -1.068,0.209 0.205,0.023 0.066,0.133 1.199,-0.124 m -25.405,10.121 c 1.158,-1.081 2.485,-1.983 3.557,-2.514 0.701,-0.551 1.96,-1.092 2.223,-1.374 0.833,-0.441 1.541,-0.784 2.196,-1.072 0.442,-0.229 0.911,-0.466 1.393,-0.698 -0.091,0.033 -0.183,0.064 -0.275,0.098 0.187,-0.079 0.373,-0.156 0.559,-0.236 0.45,-0.213 0.904,-0.419 1.35,-0.608 -0.418,0.152 -0.766,0.268 -0.861,0.256 0.958,-0.338 2.172,-0.778 3.394,-1.192 0.652,-0.272 1.463,-0.487 1.67,-0.674 2.726,-0.996 3.927,-1.109 6.611,-1.832 0.193,-0.062 0.236,-0.096 0.244,-0.126 1.555,-0.288 2.938,-0.6 4.368,-0.901 -0.457,0.075 -0.913,0.152 -1.369,0.23 0.538,-0.098 1.077,-0.19 1.614,-0.283 0.919,-0.188 1.862,-0.373 2.885,-0.54 0.679,-0.112 1.6,-0.278 1.701,-0.355 -0.449,0.051 -0.122,-0.056 -0.492,-0.022 0.969,-0.11 0.133,0.202 1.52,-0.049 l -0.149,-0.129 c -0.34,0.032 -0.629,0.059 -0.83,0.071 0.27,-0.032 0.537,-0.063 0.807,-0.093 l -0.041,-0.034 c 0.049,0.012 0.101,0.017 0.158,0.022 0.291,-0.033 0.582,-0.063 0.876,-0.092 0.135,-0.026 0.274,-0.055 0.419,-0.083 0.229,-0.072 0.89,-0.188 0.557,-0.194 -0.121,0.013 -0.251,0.031 -0.382,0.048 0.104,-0.019 0.198,-0.034 0.282,-0.048 -0.059,0 -0.134,0.004 -0.226,0.01 0.392,-0.06 0.8,-0.11 1.219,-0.159 l -0.308,-0.041 c 0.763,0.071 1.322,-0.21 1.737,-0.322 0.052,0.038 -0.32,0.224 0.607,0.1 0.396,-0.071 0.186,-0.094 0.278,-0.133 0.056,0.041 0.4,0.085 1.013,0.021 0.106,-0.074 -0.418,-0.046 -0.466,-0.105 0.464,-0.047 0.845,-0.08 1.173,-0.171 0.824,-0.048 -0.044,0.094 0.467,0.101 1.249,-0.211 0.098,-0.227 0.541,-0.419 -0.949,0.041 -2.168,0.144 -2.686,0.155 0.611,-0.051 1.219,-0.104 1.823,-0.16 -0.117,-0.053 1.203,-0.278 0.242,-0.223 1.783,-0.288 3.949,-0.583 5.661,-0.894 -0.237,0.075 -0.544,0.152 -0.485,0.188 0.89,-0.14 0.773,-0.216 0.94,-0.304 0.661,-0.092 0.615,0.044 1.035,0.037 1.314,-0.42 1.517,-0.411 2.61,-0.859 l -0.038,0.139 c 0.773,-0.322 0.941,-0.167 1.781,-0.492 0.039,-0.04 -0.301,0.027 -0.571,0.075 0.769,-0.186 0.67,-0.302 1.421,-0.484 -0.209,0.017 -0.416,0.033 -0.625,0.045 0.589,-0.171 1.461,-0.403 1.123,-0.421 1.066,-0.184 2.832,-0.844 4.115,-1.238 l -0.119,-0.071 c 0.697,-0.116 2.377,-0.915 2.99,-1.006 l 0.078,-0.076 c 0.443,-0.132 0.891,-0.261 1.332,-0.4 0.57,-0.258 0.312,-0.323 0.376,-0.302 1.27,-0.518 2.255,-0.961 3.032,-1.386 0.262,0.039 1.586,-0.547 2.621,-1.048 4.92,-2.561 10.105,-5.507 14.426,-8.353 0.635,-0.442 1.593,-0.932 2.406,-1.476 -0.761,0.62 -0.99,0.733 -1.57,1.13 0.72,-0.443 1.26,-0.781 1.582,-0.984 0.348,-0.3 0.697,-0.613 1.022,-0.929 -0.926,1.056 -1.073,1.095 -2.041,2.071 -0.708,0.753 -0.879,1.121 -1.465,1.802 l 0.245,-0.4 c -1.086,0.886 -0.655,0.708 -1.554,1.362 l 0.165,0.117 c -0.353,0.188 -1.028,0.897 -1.299,1.2 l -0.362,0.131 c -0.619,0.633 -1.041,1.024 -1.168,1.292 l -0.014,-0.151 c -0.194,0.284 -2.65,2.116 -1.699,1.632 -0.221,0.133 -0.442,0.229 -0.877,0.583 l 0.006,0.149 c -0.66,0.469 -1.404,0.984 -1.552,1.177 0.37,-0.234 0.523,-0.277 0.673,-0.322 -2.773,2.027 -0.814,0.115 -3.314,1.825 l 0.074,0.047 -0.688,0.353 -0.623,0.524 c -1.054,0.365 -3.62,2.241 -5.338,2.918 -0.653,0.305 -1.431,0.876 -2.697,1.41 l 0.033,-0.15 c -0.937,0.614 -4.792,2.097 -5.75,2.588 -1.042,0.188 0.102,-0.053 0.05,-0.143 -2.011,0.401 -2.111,0.598 -3.16,0.88 -1.26,0.167 0.946,-0.224 0.257,-0.194 -1.899,0.417 -1.568,0.155 -3.943,0.447 -0.236,0.085 0.621,0.012 0.871,0.025 -0.847,0.017 -2.055,0.085 -3.367,0.058 -1.323,-0.041 -2.636,-0.079 -3.86,-0.069 -2.769,0.099 -6.859,0.456 -10.057,1.025 l -0.066,-0.035 c -1.318,0.297 -2.781,0.417 -4.322,0.752 l 0.747,-0.201 c -1.029,0.103 -1.588,0.257 -2.552,0.414 l -0.507,0.236 c -1.042,0.177 -0.478,-0.012 -1.242,0.083 -0.925,0.282 -2.915,0.686 -3.356,0.812 -0.291,0.136 0.403,-0.017 0.562,-0.019 -1.209,0.262 -1.158,0.116 -2.641,0.527 l -0.015,0.038 c -3.591,0.811 -8.001,2.375 -11.7,4.086 0.246,-0.129 0.172,-0.121 0.255,-0.192 -2.376,1.102 -4.872,2.584 -6.864,4.235 -0.03,0.036 -0.061,0.068 -0.09,0.106 -0.106,0.105 -0.139,0.119 -0.125,0.075 -1.178,1.004 -2.165,2.069 -2.824,3.146 0.533,-1.026 1.483,-2.298 2.652,-3.371 m -3.551,6.317 c 0.057,-0.918 0.155,-0.641 0.144,-0.264 -0.057,0.054 -0.125,0.649 -0.144,0.264 m 0.373,2.796 c -0.128,-0.47 -0.21,-0.947 -0.242,-1.425 0.035,0.344 0.099,0.682 0.183,1.022 0.483,1.045 0.078,-0.198 0.031,-0.614 0.519,1.764 0.033,0.703 0.028,1.017 m 0.921,1.934 c -0.058,-0.177 -0.111,-0.354 -0.158,-0.53 0.22,0.362 0.462,0.713 0.717,1.052 0.29,0.43 -0.182,-0.057 -0.559,-0.522"
                         style="fill:url(#linearGradient355798);stroke:none"
                         id="path355800"
                         inkscape:connector-curvature="0" />
                    </g>
                  </g>
                </g>
              </g>
            </g>
          </g>
        </g>
      </g>
    </g>
  </g>
</svg>
