<?xml version="1.0" encoding="UTF-8" standalone="no"?>
<!-- Generator: Adobe Illustrator 24.1.1, SVG Export Plug-In . SVG Version: 6.00 Build 0)  -->

<svg
   xmlns:dc="http://purl.org/dc/elements/1.1/"
   xmlns:cc="http://creativecommons.org/ns#"
   xmlns:rdf="http://www.w3.org/1999/02/22-rdf-syntax-ns#"
   xmlns:svg="http://www.w3.org/2000/svg"
   xmlns="http://www.w3.org/2000/svg"
   xmlns:sodipodi="http://sodipodi.sourceforge.net/DTD/sodipodi-0.dtd"
   xmlns:inkscape="http://www.inkscape.org/namespaces/inkscape"
   version="1.1"
   id="Layer_1"
   x="0px"
   y="0px"
   viewBox="0 0 288 288"
   style="enable-background:new 0 0 288 288;"
   xml:space="preserve"
   sodipodi:docname="smalllogo.svg"
   inkscape:version="0.92.4 (5da689c313, 2019-01-14)"><metadata
   id="metadata39"><rdf:RDF><cc:Work
       rdf:about=""><dc:format>image/svg+xml</dc:format><dc:type
         rdf:resource="http://purl.org/dc/dcmitype/StillImage" /><dc:title></dc:title></cc:Work></rdf:RDF></metadata><defs
   id="defs37" /><sodipodi:namedview
   pagecolor="#ffffff"
   bordercolor="#666666"
   borderopacity="1"
   objecttolerance="10"
   gridtolerance="10"
   guidetolerance="10"
   inkscape:pageopacity="0"
   inkscape:pageshadow="2"
   inkscape:window-width="2560"
   inkscape:window-height="1363"
   id="namedview35"
   showgrid="false"
   inkscape:zoom="3.9930556"
   inkscape:cx="100.0487"
   inkscape:cy="144"
   inkscape:window-x="0"
   inkscape:window-y="0"
   inkscape:window-maximized="1"
   inkscape:current-layer="Layer_1" />
<style
   type="text/css"
   id="style10">
	.st0{fill:#231F20;}
	.st1{fill:#BFD730;}
</style>
<path
   class="st0"
   d="M143.6,219.8c-3.2,0-6.2-1.6-8-4.2l-2.1-3l-3.6,0.6c-2.6,0.4-5.2,0.7-7.8,0.7c-12.9,0-25.4-5.1-34.5-14.3  c-2.2-2.3-3.2-5.5-2.6-8.7l0.6-3.6l-3-2.2c-12.7-9.2-20.2-23.9-20.3-39.6c0-3.2,1.6-6.2,4.2-8l3-2.1l-0.6-3.6  c-0.4-2.6-0.7-5.2-0.7-7.8c0-13,5.1-25.4,14.2-34.6c1.8-1.8,4.3-2.9,6.9-2.8c0.6,0,1.1,0.1,1.7,0.2l3.6,0.6l2.2-3  c1.5-2.1,3.2-4.1,5-6c9.1-9.2,21.6-14.3,34.5-14.3c3.2,0,6.2,1.6,8,4.2l2.1,3l3.6-0.6c2.6-0.4,5.2-0.7,7.8-0.7  c13,0,25.4,5.1,34.5,14.3c2.2,2.3,3.2,5.5,2.7,8.6l-0.6,3.6l3,2.2c12.7,9.2,20.2,23.9,20.3,39.6c0,3.2-1.6,6.2-4.2,8l-3,2.1l0.6,3.6  c2.5,15.5-2.6,31.2-13.6,42.4c-1.8,1.8-4.3,2.9-6.9,2.9c-0.6,0-1.1-0.1-1.7-0.2l-3.6-0.6l-2.2,3C174,212.2,159.3,219.7,143.6,219.8  L143.6,219.8z"
   id="path12" />


<path
   class="st1"
   d="M183.1,93.5c-7.1-7.5-32.3-20.3-53.2-3.2l-1.9-1.5c7.9-8,18.7-12.4,29.9-12.4l0,0c11.2,0,22,4.4,29.9,12.4  C187.9,88.5,183.1,93.5,183.1,93.5z"
   id="path18" />
<path
   class="st1"
   d="M204.6,138.3c0.3-10.3-8.5-37.3-35.4-40l-0.3-2.5c11.2,0,22,4.4,29.9,12.4l0,0c8,7.9,12.4,18.7,12.4,30  C211.5,138.1,204.6,138.3,204.6,138.3z"
   id="path20" />
<path
   class="st1"
   d="M188.2,185.1c7.4-7.1,20.3-32.4,3.2-53.3l1.5-1.9c8,7.9,12.4,18.7,12.4,30l0,0c0,11.3-4.4,22.1-12.4,30  C193.2,189.9,188.2,185.1,188.2,185.1z"
   id="path22" />
<path
   class="st1"
   d="M143.6,206.6c10.3,0.3,37.2-8.5,39.9-35.4l2.4-0.3c0,11.3-4.4,22.1-12.4,30l0,0c-7.9,8-18.7,12.5-29.9,12.4  C143.8,213.6,143.6,206.6,143.6,206.6z"
   id="path24" />
<path
   class="st1"
   d="M96.8,190.2c7.1,7.5,32.3,20.3,53.2,3.2l1.9,1.5c-7.9,8-18.7,12.5-29.9,12.4l0,0c-11.2,0-22-4.5-29.9-12.4  C92.1,195.3,96.8,190.2,96.8,190.2z"
   id="path26" />
<path
   class="st1"
   d="M75.4,145.4c-0.3,10.3,8.5,37.3,35.3,40l0.3,2.5c-11.2,0-22-4.4-29.9-12.4l0,0c-8-8-12.4-18.7-12.4-30  C68.4,145.6,75.4,145.4,75.4,145.4z"
   id="path28" />
<path
   class="st1"
   d="M91.8,98.6c-7.4,7.1-20.3,32.4-3.2,53.3l-1.5,1.9c-8-7.9-12.4-18.7-12.4-30l0,0c0-11.3,4.4-22.1,12.4-30  C86.7,93.8,91.8,98.6,91.8,98.6z"
   id="path30" />
<path
   class="st1"
   d="M136.4,77.1c-10.3-0.3-37.2,8.5-39.9,35.4l-2.5,0.3c0-11.3,4.4-22.1,12.4-30l0,0c7.9-8,18.7-12.5,29.9-12.4  C136.2,70.1,136.4,77.1,136.4,77.1z"
   id="path32" />
<g
   inkscape:groupmode="layer"
   id="layer1"
   inkscape:label="Fonts"><text
     xml:space="preserve"
     style="font-style:normal;font-weight:normal;font-size:40px;line-height:1.25;font-family:sans-serif;letter-spacing:0px;word-spacing:0px;fill:#bfd730;fill-opacity:1;stroke:none"
     x="98.18087"
     y="165.78784"
     id="text848"><tspan
       sodipodi:role="line"
       id="tspan846"
       x="98.18087"
       y="165.78784"
       style="font-style:normal;font-variant:normal;font-weight:normal;font-stretch:normal;font-size:65.33333588px;font-family:Bitter;-inkscape-font-specification:Bitter;fill:#bfd730;fill-opacity:1">K</tspan></text>
<text
     xml:space="preserve"
     style="font-style:normal;font-weight:normal;font-size:40px;line-height:1.25;font-family:sans-serif;letter-spacing:0px;word-spacing:0px;fill:#bfd730;fill-opacity:1;stroke:none"
     x="143.24527"
     y="166.28871"
     id="text855"><tspan
       sodipodi:role="line"
       id="tspan853"
       x="143.24527"
       y="166.28871"
       style="font-style:normal;font-variant:normal;font-weight:normal;font-stretch:normal;font-size:65.33333588px;font-family:Bitter;-inkscape-font-specification:'Bitter, Normal';font-variant-ligatures:normal;font-variant-caps:normal;font-variant-numeric:normal;font-feature-settings:normal;text-align:start;writing-mode:lr-tb;text-anchor:start">S</tspan></text>
</g></svg>